<?xml version="1.0" standalone="no"?>
<!DOCTYPE svg PUBLIC "-//W3C//DTD SVG 20010904//EN"
 "http://www.w3.org/TR/2001/REC-SVG-20010904/DTD/svg10.dtd">
<svg version="1.0" xmlns="http://www.w3.org/2000/svg"
 width="360.000000pt" height="360.000000pt" viewBox="0 0 360.000000 360.000000"
 preserveAspectRatio="xMidYMid meet">

<g transform="translate(0.000000,360.000000) scale(0.100000,-0.100000)"
fill="#000000" stroke="none">
<path d="M2817 2619 c-11 -6 -25 -26 -33 -45 -15 -36 -20 -159 -5 -135 5 7 8
-53 8 -143 -1 -86 -4 -156 -9 -156 -4 0 -8 -10 -7 -22 0 -22 1 -22 9 -3 7 15
8 11 7 -17 -1 -21 -5 -38 -9 -38 -5 0 -8 -10 -7 -22 0 -22 1 -22 9 -3 7 15 8
11 7 -17 -1 -21 -5 -38 -9 -38 -13 0 -10 -848 3 -856 12 -7 8 -88 -6 -129 -6
-16 -5 -17 4 -5 10 12 11 9 9 -15 -5 -52 24 -65 141 -65 68 0 101 4 101 11 0
8 4 8 13 1 36 -31 38 3 38 851 -1 725 -3 823 -16 837 -20 19 -220 27 -248 9z"/>
<path d="M2247 2339 c-46 -27 -47 -40 -47 -714 0 -678 1 -689 48 -714 29 -15
233 -14 253 2 39 30 39 37 39 717 l0 662 -29 29 c-29 29 -31 29 -138 29 -59 0
-116 -5 -126 -11z"/>
<path d="M1693 2065 c-23 -10 -35 -24 -43 -52 -8 -26 -10 -194 -8 -551 l3
-514 28 -24 c26 -22 36 -24 136 -24 94 0 112 3 135 21 l26 20 0 540 c0 333 -4
547 -10 559 -5 10 -24 23 -41 29 -45 15 -187 13 -226 -4z"/>
<path d="M1109 1761 l-24 -19 -3 -379 c-2 -208 0 -388 3 -401 3 -12 14 -31 25
-42 18 -18 34 -20 135 -20 110 0 117 1 140 25 l25 24 0 389 c0 481 14 442
-160 442 -101 0 -121 -3 -141 -19z"/>
<path d="M574 1511 c-51 -22 -54 -37 -54 -302 0 -136 3 -255 6 -264 13 -33 59
-45 169 -45 99 0 107 2 130 25 l25 24 0 255 0 255 -24 28 c-23 27 -28 28 -128
30 -56 2 -113 -1 -124 -6z"/>
</g>
</svg>
